<?xml version="1.0" encoding="UTF-8"?>
<!DOCTYPE svg PUBLIC "-//W3C//DTD SVG 1.1//EN" "http://www.w3.org/Graphics/SVG/1.1/DTD/svg11.dtd">
<svg version="1.1" xmlns="http://www.w3.org/2000/svg" xmlns:xlink="http://www.w3.org/1999/xlink" x="0" y="0" width="99.356" height="91.061" viewBox="0, 0, 198.711, 182.123">
  <g id="Layer_1">
    <g>
      <path d="M114.7,118.608 C102.072,101.451 101.345,73.575 113.078,56.345" fill-opacity="0" stroke="#93241C" stroke-width="7" stroke-linecap="round"/>
      <g>
        <path d="M166.034,89.437 C166.351,103.894 144.008,116.954 116.13,118.608" fill-opacity="0" stroke="#93241C" stroke-width="7" stroke-linecap="round"/>
        <path d="M114.7,56.345 C143.081,56.474 166.064,71.29 166.034,89.437" fill-opacity="0" stroke="#93241C" stroke-width="7"/>
      </g>
    </g>
    <g>
      <path d="M192.211,145.136 L192.211,145.136" fill="#93241C"/>
      <path d="M192.211,145.136 L192.211,145.136" fill-opacity="0" stroke="#93241C" stroke-width="7"/>
    </g>
    <g>
      <path d="M40.621,56.661 L93.766,56.345" fill="#93241C"/>
      <path d="M40.621,56.661 L93.766,56.345" fill-opacity="0" stroke="#93241C" stroke-width="7" stroke-linecap="round"/>
    </g>
    <g>
      <path d="M37.025,72.148 L90.17,71.831" fill="#93241C"/>
      <path d="M37.025,72.148 L90.17,71.831" fill-opacity="0" stroke="#93241C" stroke-width="7" stroke-linecap="round"/>
    </g>
    <g>
      <path d="M34.476,87.634 L87.621,87.318" fill="#93241C"/>
      <path d="M34.476,87.634 L87.621,87.318" fill-opacity="0" stroke="#93241C" stroke-width="7" stroke-linecap="round"/>
    </g>
    <g>
      <path d="M37.025,103.121 L90.17,102.805" fill="#93241C"/>
      <path d="M37.025,103.121 L90.17,102.805" fill-opacity="0" stroke="#93241C" stroke-width="7" stroke-linecap="round"/>
    </g>
    <g>
      <path d="M40.621,118.608 L93.766,118.291" fill="#93241C"/>
      <path d="M40.621,118.608 L93.766,118.291" fill-opacity="0" stroke="#93241C" stroke-width="7" stroke-linecap="round"/>
    </g>
  </g>
</svg>
